# xmcd
#
# Track frame offsets:
#	150
#	11006
#	23950
#	35715
#	45128
#	56071
#	66895
#	83485
#	94780
#	106546
#	116899
#	129136
#	139019
#	151257
#	164435
#	178319
#	189144
#	202322
#	216442
#	226326
#
# Disc length: 3194 seconds
#
# Revision: 0
# Processed by: cddbd v1.5.2PL0 Copyright (c) Steve Scherf et al.
# Submitted via: EZCDAudioConverter 2.3.5.1
#
DISCID=0d0c7814
DTITLE=금잔디 - CD2
DYEAR=2011
DGENRE=
TTITLE0=그 다음은 나도 몰라요
TTITLE1=내사랑
TTITLE2=삼각 관계
TTITLE3=선남 선녀
TTITLE4=시계바늘
TTITLE5=꽃망울
TTITLE6=당신만
TTITLE7=잡지마
TTITLE8=유리벽 사랑
TTITLE9=물방울 넥타이
TTITLE10=태클을 걸지마
TTITLE11=10분내로
TTITLE12=난
TTITLE13=초대
TTITLE14=누나야
TTITLE15=간다는데
TTITLE16=폼나게 살거야
TTITLE17=여러분
TTITLE18=당신이 좋아
TTITLE19=천생연분
EXTD=
EXTT0=
EXTT1=
EXTT2=
EXTT3=
EXTT4=
EXTT5=
EXTT6=
EXTT7=
EXTT8=
EXTT9=
EXTT10=
EXTT11=
EXTT12=
EXTT13=
EXTT14=
EXTT15=
EXTT16=
EXTT17=
EXTT18=
EXTT19=
PLAYORDER=
